<?xml version="1.0" encoding="UTF-8"?>
<svg width="64px" height="64px" viewBox="0 0 64 64" version="1.1" xmlns="http://www.w3.org/2000/svg" xmlns:xlink="http://www.w3.org/1999/xlink">
    <title>Group 2</title>
    <g id="Wallpaper" stroke="none" stroke-width="1" fill="none" fill-rule="evenodd">
        <g id="iPhone-11-Pro-Max" transform="translate(-134.000000, -63.000000)">
            <g id="Group-2" transform="translate(134.000000, 63.000000)">
                <circle id="Oval" fill="#000000" cx="32" cy="32" r="32"></circle>
                <path d="M17.4417416,7.14138389 L30.3323251,7.14138389 L29.9944335,8.66025173 C29.3852104,8.61816788 29.5300586,8.56048955 28.8969158,8.66025173 C28.263773,8.76001391 28.1896809,8.82516314 27.6558502,9.02873443 C27.2920492,9.19921101 27.0655972,9.34886736 26.9764944,9.47770347 C26.894018,9.5969584 26.5450404,9.77863938 26.2878353,10.2307488 C26.002031,10.7331296 25.8465216,11.5129253 25.8244227,11.7137804 C25.7964317,11.9681881 25.7589885,12.3606345 25.7869795,12.8911198 L24.7206098,48.8482497 L40.0404067,15.6365426 C40.2689385,15.0483323 40.4063274,14.6002061 40.4525733,14.292164 C40.4988193,13.9841219 40.5355961,13.5171072 40.562904,12.8911198 L40.4525733,11.7137804 C40.3809359,11.3435325 40.2966732,11.0491442 40.1997851,10.8306156 C40.102897,10.612087 39.9251336,10.3453557 39.6664949,10.0304218 C39.2563647,9.59558226 38.865746,9.26168646 38.4946389,9.02873443 C38.1235319,8.7957824 37.4796275,8.68628875 36.8624266,8.53270888 L37.0810138,7 L47.8155077,7 L47.6245315,8.27973501 C47.2422414,8.44191404 46.5161705,8.60138274 46.2891687,8.75553909 L45.2571654,9.21193854 L44.2579334,10.2307488 L43.6837229,11.133545 L43.1233961,12.1942694 L22.2558459,58.3060818 L19.9859947,58.3060818 L20.8460781,11.9735363 C20.7734336,11.2282223 20.6394587,10.6922769 20.4441534,10.3657002 C20.1757027,9.91681471 19.7298699,9.02873443 19.1750332,9.02873443 C18.0147079,9.02873443 17.3233231,9.02873443 17.1008789,9.02873443 C16.9790133,9.02873443 17.1334494,8.47287014 17.2376268,7.96061414 C17.3236069,7.53783671 17.341163,7.14138389 17.4417416,7.14138389 Z" id="Path" stroke="#FFFFFF" stroke-width="0.5" fill="#FFFFFF"></path>
            </g>
        </g>
    </g>
</svg>