<svg width="1200" height="628" viewBox="0 0 1200 628" fill="none" xmlns="http://www.w3.org/2000/svg">
<rect width="1200" height="628" fill="white"/>
<path d="M437.68 292.304H446L457.456 328.464H457.584L469.296 292.304H477.424L461.808 338H452.912L437.68 292.304ZM481.989 292.304H514.885V299.216H489.989V311.184H513.029V317.712H489.989V331.088H515.333V338H481.989V292.304ZM522.302 292.304H530.302V331.088H553.534V338H522.302V292.304ZM547.992 292.304H556.312L567.769 328.464H567.897L579.609 292.304H587.737L572.121 338H563.225L547.992 292.304ZM592.302 292.304H625.198V299.216H600.302V311.184H623.342V317.712H600.302V331.088H625.646V338H592.302V292.304ZM628.262 292.304H665.254V299.216H650.726V338H642.726V299.216H628.262V292.304ZM682.456 320.08L665.303 292.304H674.584L686.68 312.784L698.583 292.304H707.544L690.456 320.08V338H682.456V320.08Z" fill="black"/>
<path d="M717.44 333.44C717.376 333.824 717.253 334.171 717.072 334.48C716.901 334.779 716.693 335.035 716.448 335.248C716.203 335.461 715.92 335.627 715.6 335.744C715.291 335.851 714.96 335.904 714.608 335.904C714.096 335.904 713.632 335.813 713.216 335.632C712.8 335.451 712.443 335.2 712.144 334.88C711.845 334.549 711.616 334.165 711.456 333.728C711.296 333.28 711.216 332.8 711.216 332.288C711.216 331.808 711.291 331.36 711.44 330.944C711.6 330.517 711.824 330.155 712.112 329.856C712.4 329.547 712.752 329.301 713.168 329.12C713.584 328.939 714.053 328.848 714.576 328.848C715.312 328.848 715.941 329.056 716.464 329.472C716.997 329.877 717.317 330.475 717.424 331.264H716.336C716.251 330.859 716.048 330.528 715.728 330.272C715.419 330.016 715.035 329.888 714.576 329.888C714.235 329.888 713.936 329.952 713.68 330.08C713.424 330.208 713.205 330.379 713.024 330.592C712.853 330.805 712.72 331.061 712.624 331.36C712.539 331.648 712.496 331.957 712.496 332.288C712.496 332.64 712.544 332.971 712.64 333.28C712.736 333.589 712.875 333.861 713.056 334.096C713.248 334.331 713.472 334.517 713.728 334.656C713.995 334.795 714.288 334.864 714.608 334.864C715.088 334.864 715.483 334.731 715.792 334.464C716.101 334.197 716.283 333.856 716.336 333.44H717.44ZM718.992 332.288C718.992 331.563 718.875 330.896 718.64 330.288C718.405 329.68 718.08 329.157 717.664 328.72C717.248 328.283 716.763 327.947 716.208 327.712C715.653 327.467 715.056 327.344 714.416 327.344C713.765 327.344 713.157 327.467 712.592 327.712C712.037 327.947 711.552 328.283 711.136 328.72C710.72 329.157 710.395 329.68 710.16 330.288C709.925 330.896 709.808 331.563 709.808 332.288C709.808 332.971 709.915 333.611 710.128 334.208C710.341 334.805 710.645 335.328 711.04 335.776C711.445 336.224 711.931 336.581 712.496 336.848C713.061 337.104 713.701 337.232 714.416 337.232C715.056 337.232 715.653 337.115 716.208 336.88C716.763 336.635 717.248 336.293 717.664 335.856C718.08 335.419 718.405 334.901 718.64 334.304C718.875 333.696 718.992 333.024 718.992 332.288ZM720.272 332.288C720.272 333.184 720.112 334 719.792 334.736C719.483 335.472 719.056 336.101 718.512 336.624C717.979 337.147 717.355 337.552 716.64 337.84C715.936 338.128 715.195 338.272 714.416 338.272C713.552 338.272 712.757 338.123 712.032 337.824C711.317 337.515 710.699 337.093 710.176 336.56C709.664 336.027 709.259 335.397 708.96 334.672C708.672 333.936 708.528 333.141 708.528 332.288C708.528 331.392 708.683 330.576 708.992 329.84C709.312 329.104 709.739 328.475 710.272 327.952C710.816 327.429 711.445 327.024 712.16 326.736C712.875 326.448 713.627 326.304 714.416 326.304C715.195 326.304 715.936 326.448 716.64 326.736C717.355 327.024 717.979 327.429 718.512 327.952C719.056 328.475 719.483 329.104 719.792 329.84C720.112 330.576 720.272 331.392 720.272 332.288ZM733.522 338H725.874C725.885 337.072 726.109 336.261 726.546 335.568C726.983 334.875 727.581 334.272 728.338 333.76C728.701 333.493 729.079 333.237 729.474 332.992C729.869 332.736 730.231 332.464 730.562 332.176C730.893 331.888 731.165 331.579 731.378 331.248C731.591 330.907 731.703 330.517 731.714 330.08C731.714 329.877 731.687 329.664 731.634 329.44C731.591 329.205 731.501 328.992 731.362 328.8C731.223 328.597 731.031 328.432 730.786 328.304C730.541 328.165 730.221 328.096 729.826 328.096C729.463 328.096 729.159 328.171 728.914 328.32C728.679 328.459 728.487 328.656 728.338 328.912C728.199 329.157 728.093 329.451 728.018 329.792C727.954 330.133 727.917 330.501 727.906 330.896H726.082C726.082 330.277 726.162 329.707 726.322 329.184C726.493 328.651 726.743 328.192 727.074 327.808C727.405 327.424 727.805 327.125 728.274 326.912C728.754 326.688 729.309 326.576 729.938 326.576C730.621 326.576 731.191 326.688 731.65 326.912C732.109 327.136 732.477 327.419 732.754 327.76C733.042 328.101 733.245 328.475 733.362 328.88C733.479 329.275 733.538 329.653 733.538 330.016C733.538 330.464 733.469 330.869 733.33 331.232C733.191 331.595 733.005 331.931 732.77 332.24C732.535 332.539 732.269 332.816 731.97 333.072C731.671 333.328 731.362 333.568 731.042 333.792C730.722 334.016 730.402 334.229 730.082 334.432C729.762 334.635 729.463 334.837 729.186 335.04C728.919 335.243 728.685 335.456 728.482 335.68C728.279 335.893 728.141 336.123 728.066 336.368H733.522V338ZM738.589 326.576C739.389 326.576 740.039 326.763 740.541 327.136C741.053 327.499 741.447 327.968 741.725 328.544C742.013 329.109 742.205 329.733 742.301 330.416C742.407 331.099 742.461 331.76 742.461 332.4C742.461 333.04 742.407 333.701 742.301 334.384C742.205 335.067 742.013 335.696 741.725 336.272C741.447 336.837 741.053 337.307 740.541 337.68C740.039 338.043 739.389 338.224 738.589 338.224C737.789 338.224 737.133 338.043 736.621 337.68C736.119 337.307 735.725 336.837 735.437 336.272C735.159 335.696 734.967 335.067 734.861 334.384C734.765 333.701 734.717 333.04 734.717 332.4C734.717 331.76 734.765 331.099 734.861 330.416C734.967 329.733 735.159 329.109 735.437 328.544C735.725 327.968 736.119 327.499 736.621 327.136C737.133 326.763 737.789 326.576 738.589 326.576ZM738.589 336.704C738.983 336.704 739.314 336.592 739.581 336.368C739.847 336.133 740.055 335.824 740.205 335.44C740.365 335.045 740.477 334.587 740.541 334.064C740.605 333.541 740.637 332.987 740.637 332.4C740.637 331.813 740.605 331.264 740.541 330.752C740.477 330.229 740.365 329.771 740.205 329.376C740.055 328.981 739.847 328.672 739.581 328.448C739.314 328.213 738.983 328.096 738.589 328.096C738.183 328.096 737.847 328.213 737.581 328.448C737.325 328.672 737.117 328.981 736.957 329.376C736.807 329.771 736.701 330.229 736.637 330.752C736.573 331.264 736.541 331.813 736.541 332.4C736.541 332.987 736.573 333.541 736.637 334.064C736.701 334.587 736.807 335.045 736.957 335.44C737.117 335.824 737.325 336.133 737.581 336.368C737.847 336.592 738.183 336.704 738.589 336.704ZM751.303 338H743.655C743.666 337.072 743.89 336.261 744.327 335.568C744.765 334.875 745.362 334.272 746.119 333.76C746.482 333.493 746.861 333.237 747.255 332.992C747.65 332.736 748.013 332.464 748.343 332.176C748.674 331.888 748.946 331.579 749.159 331.248C749.373 330.907 749.485 330.517 749.495 330.08C749.495 329.877 749.469 329.664 749.415 329.44C749.373 329.205 749.282 328.992 749.143 328.8C749.005 328.597 748.813 328.432 748.567 328.304C748.322 328.165 748.002 328.096 747.607 328.096C747.245 328.096 746.941 328.171 746.695 328.32C746.461 328.459 746.269 328.656 746.119 328.912C745.981 329.157 745.874 329.451 745.799 329.792C745.735 330.133 745.698 330.501 745.687 330.896H743.863C743.863 330.277 743.943 329.707 744.103 329.184C744.274 328.651 744.525 328.192 744.855 327.808C745.186 327.424 745.586 327.125 746.055 326.912C746.535 326.688 747.09 326.576 747.719 326.576C748.402 326.576 748.973 326.688 749.431 326.912C749.89 327.136 750.258 327.419 750.535 327.76C750.823 328.101 751.026 328.475 751.143 328.88C751.261 329.275 751.319 329.653 751.319 330.016C751.319 330.464 751.25 330.869 751.111 331.232C750.973 331.595 750.786 331.931 750.551 332.24C750.317 332.539 750.05 332.816 749.751 333.072C749.453 333.328 749.143 333.568 748.823 333.792C748.503 334.016 748.183 334.229 747.863 334.432C747.543 334.635 747.245 334.837 746.967 335.04C746.701 335.243 746.466 335.456 746.263 335.68C746.061 335.893 745.922 336.123 745.847 336.368H751.303V338ZM755.57 331.44C755.869 331.451 756.167 331.429 756.466 331.376C756.765 331.323 757.031 331.232 757.266 331.104C757.501 330.965 757.687 330.779 757.826 330.544C757.975 330.309 758.05 330.021 758.05 329.68C758.05 329.2 757.885 328.816 757.554 328.528C757.234 328.24 756.818 328.096 756.306 328.096C755.986 328.096 755.709 328.16 755.474 328.288C755.239 328.416 755.042 328.592 754.882 328.816C754.733 329.029 754.621 329.275 754.546 329.552C754.471 329.819 754.439 330.096 754.45 330.384H752.626C752.647 329.84 752.749 329.339 752.93 328.88C753.111 328.411 753.357 328.005 753.666 327.664C753.986 327.323 754.37 327.056 754.818 326.864C755.266 326.672 755.773 326.576 756.338 326.576C756.775 326.576 757.202 326.64 757.618 326.768C758.045 326.896 758.423 327.083 758.754 327.328C759.095 327.573 759.367 327.888 759.57 328.272C759.773 328.645 759.874 329.077 759.874 329.568C759.874 330.133 759.746 330.629 759.49 331.056C759.234 331.472 758.834 331.776 758.29 331.968V332C758.93 332.128 759.426 332.448 759.778 332.96C760.141 333.461 760.322 334.075 760.322 334.8C760.322 335.333 760.215 335.813 760.002 336.24C759.789 336.656 759.501 337.013 759.138 337.312C758.775 337.6 758.354 337.824 757.874 337.984C757.394 338.144 756.887 338.224 756.354 338.224C755.703 338.224 755.133 338.133 754.642 337.952C754.162 337.76 753.757 337.493 753.426 337.152C753.106 336.811 752.861 336.4 752.69 335.92C752.519 335.44 752.429 334.907 752.418 334.32H754.242C754.221 335.003 754.386 335.573 754.738 336.032C755.101 336.48 755.639 336.704 756.354 336.704C756.962 336.704 757.469 336.533 757.874 336.192C758.29 335.84 758.498 335.344 758.498 334.704C758.498 334.267 758.413 333.92 758.242 333.664C758.071 333.408 757.847 333.216 757.57 333.088C757.293 332.949 756.978 332.864 756.626 332.832C756.285 332.8 755.933 332.789 755.57 332.8V331.44Z" fill="black"/>
</svg>
